<svg width="97" height="100" viewBox="0 0 97 100" fill="none" xmlns="http://www.w3.org/2000/svg">
<path d="M0 0H96.242V100H0V0Z" fill="#F7DF1E"/>
<path d="M25.3058 83.567L32.6709 78.9358C34.0917 81.5534 35.3843 83.7682 38.4846 83.7682C41.4565 83.7682 43.3302 82.5602 43.3302 77.8618V45.9094H52.3745V77.9947C52.3745 87.728 46.8835 92.1583 38.8724 92.1583C31.6373 92.1583 27.4374 88.2648 25.3056 83.5662" fill="black"/>
<path d="M57.2868 82.5604L64.651 78.13C66.5896 81.4196 69.1091 83.8359 73.5665 83.8359C77.314 83.8359 79.7037 81.8891 79.7037 79.204C79.7037 75.9819 77.2489 74.8407 73.1142 72.9618L70.8537 71.9542C64.3284 69.0683 59.9998 65.4435 59.9998 57.791C59.9998 50.7428 65.168 45.3724 73.2437 45.3724C78.9935 45.3724 83.1281 47.4535 86.0995 52.8908L79.0577 57.5894C77.5071 54.7032 75.8279 53.5623 73.2439 53.5623C70.5951 53.5623 68.9153 55.3075 68.9153 57.5894C68.9153 60.4088 70.5951 61.5502 74.4709 63.2956L76.7318 64.3024C84.4197 67.7261 88.7483 71.2162 88.7483 79.0697C88.7483 87.5281 82.3527 92.1594 73.7605 92.1594C65.3621 92.1594 59.9353 87.9978 57.287 82.5604" fill="black"/>
</svg>
